<svg viewBox="0 0 64 64" xmlns="http://www.w3.org/2000/svg">
    <g data-name="Layer 27">
        <rect fill="none" height="38" stroke="#000" stroke-linejoin="round" stroke-width="2"
            width="60" x="2" y="24" />
        <line fill="none" stroke="#000" stroke-linejoin="round" stroke-width="2" x1="2" x2="62"
            y1="32" y2="32" />
        <line fill="none" stroke="#000" stroke-linejoin="round" stroke-width="2" x1="6" x2="8"
            y1="28" y2="28" />
        <line fill="none" stroke="#000" stroke-linejoin="round" stroke-width="2" x1="10" x2="12"
            y1="28" y2="28" />
        <line fill="none" stroke="#000" stroke-linejoin="round" stroke-width="2" x1="14" x2="16"
            y1="28" y2="28" />
        <line fill="none" stroke="#000" stroke-linejoin="round" stroke-width="2" x1="18" x2="20"
            y1="28" y2="28" />
        <line fill="none" stroke="#000" stroke-linejoin="round" stroke-width="2" x1="44" x2="60"
            y1="28" y2="28" />
        <path
            d="M60.48 24A9 9 0 0 0 47 12.34 8 8 0 0 0 34.35 6.5a10 10 0 0 0-16.71 0A7 7 0 0 0 8.08 12H8A6 6 0 0 0 8 24M53 14a5 5 0 0 1 5 5M8 20a2 2 0 0 1 0-4"
            fill="none" stroke="#000" stroke-linejoin="round" stroke-width="2" />
        <polyline fill="none" points="9 57 17 36 25 57" stroke="#000" stroke-linejoin="round"
            stroke-width="2" />
        <line fill="none" stroke="#000" stroke-linejoin="round" stroke-width="2" x1="12" x2="22"
            y1="50" y2="50" />
        <polyline fill="none" points="29 57 29 37 40 37 40 45 29 45" stroke="#000"
            stroke-linejoin="round" stroke-width="2" />
        <line fill="none" stroke="#000" stroke-linejoin="round" stroke-width="2" x1="43" x2="53"
            y1="37" y2="37" />
        <line fill="none" stroke="#000" stroke-linejoin="round" stroke-width="2" x1="48" x2="48"
            y1="37" y2="56" />
        <line fill="none" stroke="#000" stroke-linejoin="round" stroke-width="2" x1="43" x2="53"
            y1="56" y2="56" />
    </g>
</svg>